<?xml version="1.0" encoding="UTF-8"?>
<svg xmlns="http://www.w3.org/2000/svg" width="21" height="22" viewBox="0 0 21 22" fill="none">
  <path fill-rule="evenodd" clip-rule="evenodd" d="M5.2977 11.0001C5.2977 13.9503 7.62533 16.3414 10.4986 16.3414C13.3696 16.3414 15.6995 13.9503 15.6995 11.0001C15.6995 8.05112 13.3696 5.66003 10.4986 5.66003C7.62533 5.66003 5.2977 8.05112 5.2977 11.0001ZM7.11908 11.0013C7.11908 9.08495 8.6322 7.53247 10.4986 7.53247C12.365 7.53247 13.8758 9.08495 13.8758 11.0013C13.8758 12.9165 12.365 14.4701 10.4986 14.4701C8.6322 14.4701 7.11908 12.9165 7.11908 11.0013ZM17.1192 5.46366C17.1192 4.77595 16.5762 4.21845 15.9065 4.21845C15.2367 4.21845 14.6937 4.77595 14.6937 5.46366C14.6937 6.15137 15.2367 6.70887 15.9065 6.70887C16.5762 6.70887 17.1192 6.15137 17.1192 5.46366ZM17.1372 1.15739C16.3508 0.853593 15.5195 0.690721 14.678 0.672239C13.5946 0.623725 13.2515 0.609863 10.5042 0.609863C7.75695 0.609863 7.40483 0.609863 6.33045 0.672239C5.4912 0.689566 4.65983 0.852438 3.87345 1.15739C2.5122 1.69683 1.43783 2.80112 0.911328 4.19765C0.615453 5.00623 0.456828 5.85871 0.439953 6.72274C0.391578 7.83396 0.376953 8.18627 0.376953 11.0082C0.376953 13.829 0.376953 14.1882 0.439953 15.2937C0.456828 16.1577 0.615453 17.0102 0.911328 17.8199C1.43895 19.2153 2.51333 20.3196 3.87458 20.8602C4.65758 21.1744 5.48895 21.3523 6.3327 21.38C7.41608 21.4285 7.7592 21.4435 10.5065 21.4435C13.2537 21.4435 13.6058 21.4435 14.6802 21.38C15.5206 21.3627 16.352 21.1986 17.1395 20.896C18.4996 20.3543 19.574 19.2511 20.1016 17.8546C20.3975 17.046 20.5561 16.1935 20.573 15.3295C20.6213 14.2183 20.636 13.866 20.636 11.044C20.636 8.22208 20.636 7.86399 20.573 6.75854C20.5583 5.88297 20.4008 5.01548 20.0993 4.19765C19.5717 2.80112 18.4973 1.69683 17.1372 1.15739ZM18.3792 17.1581C18.0361 18.0671 17.3375 18.7856 16.4532 19.1345C15.8513 19.3643 15.2168 19.4845 14.5745 19.4937C13.5057 19.5445 13.2042 19.5572 10.4637 19.5572C7.72095 19.5572 7.44083 19.5572 6.35183 19.4937C5.7117 19.4856 5.07495 19.3643 4.4742 19.1345C3.58658 18.7868 2.88345 18.0683 2.54033 17.1581C2.31983 16.5412 2.20058 15.8886 2.19045 15.2302C2.14208 14.1328 2.13083 13.8232 2.13083 11.0094C2.13083 8.19435 2.13083 7.90673 2.19045 6.78742C2.19833 6.12208 2.31533 5.46366 2.54033 4.83874C2.88345 3.92736 3.58658 3.21003 4.4742 2.86118C5.07495 2.63247 5.7117 2.51118 6.35183 2.50194C7.4217 2.45227 7.72208 2.43841 10.4637 2.43841C13.2053 2.43841 13.4866 2.43841 14.5745 2.50194C15.2168 2.51003 15.8513 2.63132 16.4532 2.86118C17.3375 3.21118 18.0361 3.92967 18.3792 4.83874C18.5997 5.45557 18.719 6.10821 18.7291 6.76663C18.7775 7.86515 18.7898 8.17356 18.7898 10.9886C18.7898 13.8024 18.7898 14.1051 18.7415 15.2094H18.7291V15.2082C18.7212 15.8736 18.6042 16.5331 18.3792 17.1581Z" fill="white"></path>
</svg>
