<?xml version="1.0" encoding="UTF-8"?>
<svg xmlns="http://www.w3.org/2000/svg" width="28" height="28" viewBox="0 0 28 28" fill="none">
  <mask id="mask0_1447_80" style="mask-type:alpha" maskUnits="userSpaceOnUse" x="0" y="0" width="28" height="28">
    <rect y="0.138672" width="28" height="27.7228" fill="white"></rect>
  </mask>
  <g mask="url(#mask0_1447_80)">
    <path fill-rule="evenodd" clip-rule="evenodd" d="M19.8333 23.2408V15.4438C19.8333 14.221 18.4475 13.198 17.2124 13.198C15.9774 13.198 15.1667 14.221 15.1667 15.4438V23.2408H10.5V9.37942H15.1667V11.6897C15.9394 10.452 17.9158 9.6535 19.2792 9.6535C22.1626 9.6535 24.5 12.0115 24.5 14.8662V23.2408H19.8333ZM3.5 23.2408V9.37942H8.16667V23.2408H3.5ZM8.16668 4.75896C8.16668 6.03487 7.12201 7.06919 5.83334 7.06919C4.54468 7.06919 3.50001 6.03487 3.50001 4.75896C3.50001 3.48306 4.54468 2.44873 5.83334 2.44873C7.12201 2.44873 8.16668 3.48306 8.16668 4.75896Z" fill="white"></path>
  </g>
</svg>
