<?xml version="1.0" encoding="UTF-8"?>
<svg xmlns="http://www.w3.org/2000/svg" width="25" height="21" viewBox="0 0 25 21" fill="none">
  <path d="M21.4927 3.8644C22.4894 3.25087 23.2551 2.27939 23.6155 1.12173C22.6825 1.68988 21.6493 2.10242 20.5495 2.32469C19.6689 1.36123 18.4142 0.759277 17.0255 0.759277C14.3591 0.759277 12.1972 2.9788 12.1972 5.71651C12.1972 6.10504 12.24 6.48341 12.3223 6.84628C8.30966 6.63951 4.75202 4.66591 2.37078 1.66663C1.95516 2.39879 1.71707 3.25035 1.71707 4.15889C1.71707 5.8788 2.5694 7.39614 3.86494 8.2852C3.07357 8.25933 2.32901 8.03639 1.67812 7.66509C1.67766 7.6858 1.67766 7.70649 1.67766 7.7274C1.67766 10.1293 3.34193 12.1329 5.55059 12.5884C5.14548 12.7017 4.71894 12.7623 4.27861 12.7623C3.96751 12.7623 3.66505 12.7311 3.3702 12.6734C3.98462 14.6427 5.76765 16.0761 7.88041 16.116C6.22803 17.4457 4.14623 18.2383 1.88415 18.2383C1.49444 18.2383 1.11013 18.2147 0.732422 18.1688C2.86909 19.5754 5.40695 20.3962 8.13349 20.3962C17.0141 20.3962 21.8705 12.8424 21.8705 6.29133C21.8705 6.07644 21.8658 5.86264 21.8565 5.64998C22.7999 4.95103 23.6184 4.07795 24.2656 3.08381C23.3998 3.47811 22.4692 3.74458 21.4927 3.8644Z" fill="white"></path>
</svg>
