<?xml version="1.0" encoding="UTF-8"?>
<svg xmlns="http://www.w3.org/2000/svg" width="25" height="20" viewBox="0 0 25 20" fill="none">
  <path fill-rule="evenodd" clip-rule="evenodd" d="M22.1926 1.33569C20.256 0.76852 12.5086 0.759287 12.5086 0.759287C12.5086 0.759287 4.76235 0.750054 2.82455 1.29216C1.78579 1.59421 0.927572 2.50696 0.640675 3.63735C0.129949 5.7029 0.125002 9.98701 0.125002 9.98701C0.125002 9.98701 0.120055 14.2922 0.627072 16.3367C0.911495 17.4671 1.74622 18.36 2.80724 18.6647C4.76358 19.2319 12.49 19.2411 12.49 19.2411C12.49 19.2411 20.2375 19.2504 22.174 18.7096C23.2326 18.4062 24.071 17.5145 24.3591 16.3842C24.8711 14.3199 24.8748 10.0371 24.8748 10.0371C24.8748 10.0371 24.8996 5.7306 24.3715 3.66505C24.0871 2.53334 23.2524 1.64038 22.1926 1.33569ZM10.0366 6.04188L16.4757 10.0055L10.0304 13.9559L10.0366 6.04188Z" fill="white"></path>
</svg>
